<mxfile host="534b6947-65d7-403c-b0a8-ef30a5ce8315" modified="2020-08-24T11:22:52.130Z" agent="5.0 (Macintosh; Intel Mac OS X 10_15_5) AppleWebKit/537.36 (KHTML, like Gecko) Code/1.48.0 Chrome/78.0.3904.130 Electron/7.3.2 Safari/537.36" etag="liRAoNHN8Su6Y4jNS9uU" version="13.1.3">
    <diagram id="6hGFLwfOUW9BJ-s0fimq" name="Page-1">
        <mxGraphModel dx="1255" dy="1469" grid="1" gridSize="10" guides="1" tooltips="1" connect="1" arrows="1" fold="1" page="1" pageScale="1" pageWidth="827" pageHeight="1169" math="0" shadow="0">
            <root>
                <mxCell id="0"/>
                <mxCell id="1" parent="0"/>
                <mxCell id="5" value="" style="edgeStyle=orthogonalEdgeStyle;rounded=0;orthogonalLoop=1;jettySize=auto;html=1;" parent="1" source="2" target="4" edge="1">
                    <mxGeometry relative="1" as="geometry"/>
                </mxCell>
                <mxCell id="2" value="Props System" style="rounded=0;whiteSpace=wrap;html=1;" parent="1" vertex="1">
                    <mxGeometry x="60" y="100" width="120" height="60" as="geometry"/>
                </mxCell>
                <mxCell id="7" value="" style="edgeStyle=orthogonalEdgeStyle;rounded=0;orthogonalLoop=1;jettySize=auto;html=1;" parent="1" source="3" target="6" edge="1">
                    <mxGeometry relative="1" as="geometry"/>
                </mxCell>
                <mxCell id="3" value="Context System&amp;nbsp;" style="rounded=0;whiteSpace=wrap;html=1;" parent="1" vertex="1">
                    <mxGeometry x="320" y="100" width="120" height="60" as="geometry"/>
                </mxCell>
                <mxCell id="6" value="Get data from parent to &quot;any&quot; nested child component" style="rounded=0;whiteSpace=wrap;html=1;" parent="1" vertex="1">
                    <mxGeometry x="320" y="210" width="120" height="60" as="geometry"/>
                </mxCell>
                <mxCell id="4" value="Get data from parent to &quot;direct&quot; child component" style="rounded=0;whiteSpace=wrap;html=1;" parent="1" vertex="1">
                    <mxGeometry x="60" y="210" width="120" height="60" as="geometry"/>
                </mxCell>
                <mxCell id="11" value="" style="edgeStyle=orthogonalEdgeStyle;rounded=0;orthogonalLoop=1;jettySize=auto;html=1;" parent="1" source="8" target="10" edge="1">
                    <mxGeometry relative="1" as="geometry"/>
                </mxCell>
                <mxCell id="8" value="App" style="rounded=0;whiteSpace=wrap;html=1;" parent="1" vertex="1">
                    <mxGeometry x="140" y="600" width="120" height="60" as="geometry"/>
                </mxCell>
                <mxCell id="13" value="" style="edgeStyle=orthogonalEdgeStyle;rounded=0;orthogonalLoop=1;jettySize=auto;html=1;" parent="1" source="10" target="12" edge="1">
                    <mxGeometry relative="1" as="geometry"/>
                </mxCell>
                <mxCell id="10" value="Header" style="rounded=0;whiteSpace=wrap;html=1;" parent="1" vertex="1">
                    <mxGeometry x="140" y="740" width="120" height="60" as="geometry"/>
                </mxCell>
                <mxCell id="12" value="Button" style="rounded=0;whiteSpace=wrap;html=1;" parent="1" vertex="1">
                    <mxGeometry x="140" y="920" width="120" height="60" as="geometry"/>
                </mxCell>
                <mxCell id="9" value="Communication with Props" style="text;html=1;strokeColor=none;fillColor=none;align=center;verticalAlign=middle;whiteSpace=wrap;rounded=0;" parent="1" vertex="1">
                    <mxGeometry x="180" y="540" width="40" height="20" as="geometry"/>
                </mxCell>
                <mxCell id="14" value="buttonText" style="rounded=0;whiteSpace=wrap;html=1;" parent="1" vertex="1">
                    <mxGeometry x="200" y="690" width="60" height="20" as="geometry"/>
                </mxCell>
                <mxCell id="15" value="buttonText" style="rounded=0;whiteSpace=wrap;html=1;" parent="1" vertex="1">
                    <mxGeometry x="200" y="880" width="60" height="20" as="geometry"/>
                </mxCell>
                <mxCell id="16" value="" style="edgeStyle=orthogonalEdgeStyle;rounded=0;orthogonalLoop=1;jettySize=auto;html=1;" parent="1" source="17" target="18" edge="1">
                    <mxGeometry relative="1" as="geometry"/>
                </mxCell>
                <mxCell id="27" value="" style="edgeStyle=orthogonalEdgeStyle;rounded=0;orthogonalLoop=1;jettySize=auto;html=1;" parent="1" source="17" edge="1">
                    <mxGeometry relative="1" as="geometry">
                        <mxPoint x="540" y="910" as="targetPoint"/>
                        <Array as="points">
                            <mxPoint x="660" y="630"/>
                            <mxPoint x="660" y="910"/>
                        </Array>
                    </mxGeometry>
                </mxCell>
                <mxCell id="17" value="App" style="rounded=0;whiteSpace=wrap;html=1;" parent="1" vertex="1">
                    <mxGeometry x="414" y="600" width="120" height="60" as="geometry"/>
                </mxCell>
                <mxCell id="25" value="" style="edgeStyle=orthogonalEdgeStyle;rounded=0;orthogonalLoop=1;jettySize=auto;html=1;" parent="1" source="18" target="24" edge="1">
                    <mxGeometry relative="1" as="geometry"/>
                </mxCell>
                <mxCell id="18" value="Header" style="rounded=0;whiteSpace=wrap;html=1;" parent="1" vertex="1">
                    <mxGeometry x="414" y="740" width="120" height="60" as="geometry"/>
                </mxCell>
                <mxCell id="24" value="Button" style="rounded=0;whiteSpace=wrap;html=1;" parent="1" vertex="1">
                    <mxGeometry x="414" y="880" width="120" height="60" as="geometry"/>
                </mxCell>
                <mxCell id="28" value="buttonText" style="rounded=0;whiteSpace=wrap;html=1;" parent="1" vertex="1">
                    <mxGeometry x="660" y="730" width="60" height="20" as="geometry"/>
                </mxCell>
                <mxCell id="29" value="Communicating with Context" style="text;html=1;align=center;verticalAlign=middle;resizable=0;points=[];autosize=1;" parent="1" vertex="1">
                    <mxGeometry x="400" y="554" width="170" height="20" as="geometry"/>
                </mxCell>
                <mxCell id="30" value="Context is just about communicating info like props in other way; can not replace redux" style="text;html=1;align=center;verticalAlign=middle;resizable=0;points=[];autosize=1;" parent="1" vertex="1">
                    <mxGeometry x="-160" y="310" width="480" height="20" as="geometry"/>
                </mxCell>
                <mxCell id="34" value="" style="edgeStyle=orthogonalEdgeStyle;rounded=0;orthogonalLoop=1;jettySize=auto;html=1;" parent="1" source="31" target="33" edge="1">
                    <mxGeometry relative="1" as="geometry"/>
                </mxCell>
                <mxCell id="46" value="" style="edgeStyle=orthogonalEdgeStyle;rounded=0;orthogonalLoop=1;jettySize=auto;html=1;entryX=1;entryY=0.5;entryDx=0;entryDy=0;" parent="1" source="31" target="38" edge="1">
                    <mxGeometry relative="1" as="geometry">
                        <mxPoint x="670" y="-100" as="targetPoint"/>
                        <Array as="points">
                            <mxPoint x="740" y="-370"/>
                            <mxPoint x="740" y="-90"/>
                        </Array>
                    </mxGeometry>
                </mxCell>
                <mxCell id="47" style="edgeStyle=orthogonalEdgeStyle;rounded=0;orthogonalLoop=1;jettySize=auto;html=1;entryX=0;entryY=0.5;entryDx=0;entryDy=0;" parent="1" source="31" target="36" edge="1">
                    <mxGeometry relative="1" as="geometry">
                        <mxPoint x="110" y="-230" as="targetPoint"/>
                        <Array as="points">
                            <mxPoint x="90" y="-370"/>
                            <mxPoint x="90" y="-90"/>
                        </Array>
                    </mxGeometry>
                </mxCell>
                <mxCell id="31" value="App" style="rounded=0;whiteSpace=wrap;html=1;" parent="1" vertex="1">
                    <mxGeometry x="280" y="-400" width="120" height="60" as="geometry"/>
                </mxCell>
                <mxCell id="37" value="" style="edgeStyle=orthogonalEdgeStyle;rounded=0;orthogonalLoop=1;jettySize=auto;html=1;" parent="1" source="33" target="36" edge="1">
                    <mxGeometry relative="1" as="geometry"/>
                </mxCell>
                <mxCell id="39" value="" style="edgeStyle=orthogonalEdgeStyle;rounded=0;orthogonalLoop=1;jettySize=auto;html=1;" parent="1" source="33" target="38" edge="1">
                    <mxGeometry relative="1" as="geometry"/>
                </mxCell>
                <mxCell id="33" value="UserCreate" style="rounded=0;whiteSpace=wrap;html=1;" parent="1" vertex="1">
                    <mxGeometry x="280" y="-260" width="120" height="60" as="geometry"/>
                </mxCell>
                <mxCell id="38" value="Button" style="rounded=0;whiteSpace=wrap;html=1;" parent="1" vertex="1">
                    <mxGeometry x="450" y="-120" width="120" height="60" as="geometry"/>
                </mxCell>
                <mxCell id="36" value="Field" style="rounded=0;whiteSpace=wrap;html=1;" parent="1" vertex="1">
                    <mxGeometry x="150" y="-120" width="120" height="60" as="geometry"/>
                </mxCell>
                <mxCell id="32" value="App Structure" style="text;html=1;align=center;verticalAlign=middle;resizable=0;points=[];autosize=1;" parent="1" vertex="1">
                    <mxGeometry x="551" y="341" width="90" height="20" as="geometry"/>
                </mxCell>
                <mxCell id="35" value="language" style="text;html=1;strokeColor=none;fillColor=none;align=center;verticalAlign=middle;whiteSpace=wrap;rounded=0;" parent="1" vertex="1">
                    <mxGeometry x="350" y="-310" width="40" height="20" as="geometry"/>
                </mxCell>
                <mxCell id="40" value="language" style="text;html=1;strokeColor=none;fillColor=none;align=center;verticalAlign=middle;whiteSpace=wrap;rounded=0;" parent="1" vertex="1">
                    <mxGeometry x="210" y="-180" width="40" height="20" as="geometry"/>
                </mxCell>
                <mxCell id="41" value="language" style="text;html=1;strokeColor=none;fillColor=none;align=center;verticalAlign=middle;whiteSpace=wrap;rounded=0;" parent="1" vertex="1">
                    <mxGeometry x="520" y="-200" width="40" height="20" as="geometry"/>
                </mxCell>
                <mxCell id="42" value="UserCreate doesn't care about language so can use Context" style="text;html=1;align=center;verticalAlign=middle;resizable=0;points=[];autosize=1;" parent="1" vertex="1">
                    <mxGeometry x="400" y="-270" width="340" height="20" as="geometry"/>
                </mxCell>
                <mxCell id="48" value="language" style="text;html=1;strokeColor=none;fillColor=none;align=center;verticalAlign=middle;whiteSpace=wrap;rounded=0;" parent="1" vertex="1">
                    <mxGeometry x="760" y="-290" width="40" height="20" as="geometry"/>
                </mxCell>
                <mxCell id="49" value="language" style="text;html=1;strokeColor=none;fillColor=none;align=center;verticalAlign=middle;whiteSpace=wrap;rounded=0;" parent="1" vertex="1">
                    <mxGeometry x="40" y="-240" width="40" height="20" as="geometry"/>
                </mxCell>
                <mxCell id="52" value="" style="edgeStyle=orthogonalEdgeStyle;rounded=0;orthogonalLoop=1;jettySize=auto;html=1;" edge="1" parent="1" source="50" target="51">
                    <mxGeometry relative="1" as="geometry"/>
                </mxCell>
                <mxCell id="50" value="Parent Component(App)" style="rounded=0;whiteSpace=wrap;html=1;" vertex="1" parent="1">
                    <mxGeometry x="-40" y="-890" width="120" height="60" as="geometry"/>
                </mxCell>
                <mxCell id="51" value="NestedChild&lt;br&gt;(Button/Field)" style="rounded=0;whiteSpace=wrap;html=1;" vertex="1" parent="1">
                    <mxGeometry x="-40" y="-750" width="120" height="60" as="geometry"/>
                </mxCell>
                <mxCell id="53" value="Context object(via data)" style="text;html=1;strokeColor=none;fillColor=none;align=center;verticalAlign=middle;whiteSpace=wrap;rounded=0;" vertex="1" parent="1">
                    <mxGeometry x="60" y="-810" width="40" height="20" as="geometry"/>
                </mxCell>
                <mxCell id="54" value="Like a pipe where water is data" style="text;html=1;strokeColor=none;fillColor=none;align=center;verticalAlign=middle;whiteSpace=wrap;rounded=0;" vertex="1" parent="1">
                    <mxGeometry x="-50" y="-800" width="40" height="20" as="geometry"/>
                </mxCell>
                <mxCell id="59" value="Context" style="shape=singleArrow;direction=south;whiteSpace=wrap;html=1;" vertex="1" parent="1">
                    <mxGeometry x="-10" y="-610" width="170" height="190" as="geometry"/>
                </mxCell>
                <mxCell id="60" value="data" style="text;html=1;strokeColor=none;fillColor=none;align=center;verticalAlign=middle;whiteSpace=wrap;rounded=0;" vertex="1" parent="1">
                    <mxGeometry x="50" y="-650" width="40" height="20" as="geometry"/>
                </mxCell>
                <mxCell id="61" value="data" style="text;html=1;strokeColor=none;fillColor=none;align=center;verticalAlign=middle;whiteSpace=wrap;rounded=0;" vertex="1" parent="1">
                    <mxGeometry x="55" y="-410" width="40" height="20" as="geometry"/>
                </mxCell>
                <mxCell id="62" value="Two ways to get info in" style="rounded=0;whiteSpace=wrap;html=1;" vertex="1" parent="1">
                    <mxGeometry x="-100" y="-640" width="110" height="44" as="geometry"/>
                </mxCell>
                <mxCell id="67" value="Two ways to get info out" style="rounded=0;whiteSpace=wrap;html=1;" vertex="1" parent="1">
                    <mxGeometry x="-120" y="-444" width="110" height="44" as="geometry"/>
                </mxCell>
                <mxCell id="68" value="" style="rounded=0;whiteSpace=wrap;html=1;" vertex="1" parent="1">
                    <mxGeometry x="550" y="-965" width="270" height="80" as="geometry"/>
                </mxCell>
                <mxCell id="85" value="" style="edgeStyle=orthogonalEdgeStyle;rounded=0;orthogonalLoop=1;jettySize=auto;html=1;entryX=0.25;entryY=0;entryDx=0;entryDy=0;" edge="1" parent="1" source="69" target="70">
                    <mxGeometry relative="1" as="geometry"/>
                </mxCell>
                <mxCell id="88" style="edgeStyle=orthogonalEdgeStyle;rounded=0;orthogonalLoop=1;jettySize=auto;html=1;entryX=0.796;entryY=0.033;entryDx=0;entryDy=0;entryPerimeter=0;" edge="1" parent="1" source="69" target="70">
                    <mxGeometry relative="1" as="geometry"/>
                </mxCell>
                <mxCell id="69" value="Data" style="shape=singleArrow;direction=south;whiteSpace=wrap;html=1;" vertex="1" parent="1">
                    <mxGeometry x="630" y="-870" width="120" height="110" as="geometry"/>
                </mxCell>
                <mxCell id="70" value="Nested Component" style="rounded=0;whiteSpace=wrap;html=1;" vertex="1" parent="1">
                    <mxGeometry x="570" y="-710" width="240" height="60" as="geometry"/>
                </mxCell>
                <mxCell id="71" value="Context Object" style="text;html=1;strokeColor=none;fillColor=none;align=center;verticalAlign=middle;whiteSpace=wrap;rounded=0;" vertex="1" parent="1">
                    <mxGeometry x="730" y="-830" width="40" height="20" as="geometry"/>
                </mxCell>
                <mxCell id="72" value="Source of Data" style="text;html=1;strokeColor=none;fillColor=none;align=center;verticalAlign=middle;whiteSpace=wrap;rounded=0;" vertex="1" parent="1">
                    <mxGeometry x="490" y="-950" width="40" height="20" as="geometry"/>
                </mxCell>
                <mxCell id="80" value="" style="edgeStyle=orthogonalEdgeStyle;rounded=0;orthogonalLoop=1;jettySize=auto;html=1;entryX=0;entryY=0.5;entryDx=0;entryDy=0;entryPerimeter=0;" edge="1" parent="1" source="73" target="69">
                    <mxGeometry relative="1" as="geometry">
                        <mxPoint x="615" y="-840" as="targetPoint"/>
                    </mxGeometry>
                </mxCell>
                <mxCell id="73" value="Default Value" style="rounded=0;whiteSpace=wrap;html=1;" vertex="1" parent="1">
                    <mxGeometry x="570" y="-945" width="90" height="25" as="geometry"/>
                </mxCell>
                <mxCell id="82" value="" style="edgeStyle=orthogonalEdgeStyle;rounded=0;orthogonalLoop=1;jettySize=auto;html=1;" edge="1" parent="1" source="74" target="69">
                    <mxGeometry relative="1" as="geometry"/>
                </mxCell>
                <mxCell id="74" value="Parent Component" style="rounded=0;whiteSpace=wrap;html=1;" vertex="1" parent="1">
                    <mxGeometry x="700" y="-957.5" width="110" height="57.5" as="geometry"/>
                </mxCell>
                <mxCell id="76" value="or" style="text;html=1;strokeColor=none;fillColor=none;align=center;verticalAlign=middle;whiteSpace=wrap;rounded=0;" vertex="1" parent="1">
                    <mxGeometry x="660" y="-935" width="40" height="20" as="geometry"/>
                </mxCell>
                <mxCell id="84" value="Provider" style="text;html=1;strokeColor=none;fillColor=none;align=center;verticalAlign=middle;whiteSpace=wrap;rounded=0;" vertex="1" parent="1">
                    <mxGeometry x="740" y="-920" width="40" height="20" as="geometry"/>
                </mxCell>
                <mxCell id="86" value="this.context" style="text;html=1;strokeColor=none;fillColor=none;align=center;verticalAlign=middle;whiteSpace=wrap;rounded=0;" vertex="1" parent="1">
                    <mxGeometry x="610" y="-710" width="40" height="20" as="geometry"/>
                </mxCell>
                <mxCell id="87" value="Compnent that uses data" style="text;html=1;strokeColor=none;fillColor=none;align=center;verticalAlign=middle;whiteSpace=wrap;rounded=0;" vertex="1" parent="1">
                    <mxGeometry x="510" y="-690" width="40" height="20" as="geometry"/>
                </mxCell>
                <mxCell id="89" value="Consumer" style="text;html=1;strokeColor=none;fillColor=none;align=center;verticalAlign=middle;whiteSpace=wrap;rounded=0;" vertex="1" parent="1">
                    <mxGeometry x="740" y="-710" width="40" height="20" as="geometry"/>
                </mxCell>
                <mxCell id="90" value="&quot;english&quot;" style="shape=singleArrow;direction=south;whiteSpace=wrap;html=1;" vertex="1" parent="1">
                    <mxGeometry x="250" y="-870" width="120" height="110" as="geometry"/>
                </mxCell>
                <mxCell id="91" value="Context Object" style="text;html=1;strokeColor=none;fillColor=none;align=center;verticalAlign=middle;whiteSpace=wrap;rounded=0;" vertex="1" parent="1">
                    <mxGeometry x="350" y="-840" width="40" height="20" as="geometry"/>
                </mxCell>
                <mxCell id="92" value="Nested Component" style="rounded=0;whiteSpace=wrap;html=1;" vertex="1" parent="1">
                    <mxGeometry x="210" y="-750" width="240" height="60" as="geometry"/>
                </mxCell>
                <mxCell id="93" value="this.context" style="text;html=1;strokeColor=none;fillColor=none;align=center;verticalAlign=middle;whiteSpace=wrap;rounded=0;" vertex="1" parent="1">
                    <mxGeometry x="290" y="-750" width="40" height="20" as="geometry"/>
                </mxCell>
                <mxCell id="96" style="edgeStyle=orthogonalEdgeStyle;rounded=0;orthogonalLoop=1;jettySize=auto;html=1;entryX=0;entryY=0;entryDx=44;entryDy=78;entryPerimeter=0;" edge="1" parent="1" source="95" target="90">
                    <mxGeometry relative="1" as="geometry">
                        <Array as="points">
                            <mxPoint x="230" y="-826"/>
                        </Array>
                    </mxGeometry>
                </mxCell>
                <mxCell id="95" value="contextType" style="text;html=1;strokeColor=none;fillColor=none;align=center;verticalAlign=middle;whiteSpace=wrap;rounded=0;" vertex="1" parent="1">
                    <mxGeometry x="210" y="-770" width="40" height="20" as="geometry"/>
                </mxCell>
                <mxCell id="99" value="" style="endArrow=classic;html=1;" edge="1" parent="1" target="90">
                    <mxGeometry width="50" height="50" relative="1" as="geometry">
                        <mxPoint x="310" y="-740" as="sourcePoint"/>
                        <mxPoint x="400" y="-810" as="targetPoint"/>
                        <Array as="points">
                            <mxPoint x="310" y="-750"/>
                        </Array>
                    </mxGeometry>
                </mxCell>
                <mxCell id="104" value="Parent Component renders Context.Provider Component" style="text;html=1;strokeColor=none;fillColor=none;align=center;verticalAlign=middle;whiteSpace=wrap;rounded=0;" vertex="1" parent="1">
                    <mxGeometry x="-710" y="280" width="130" height="50" as="geometry"/>
                </mxCell>
                <mxCell id="105" value="&quot;eng&quot;" style="shape=singleArrow;direction=south;whiteSpace=wrap;html=1;" vertex="1" parent="1">
                    <mxGeometry x="-735" y="460" width="155" height="130" as="geometry"/>
                </mxCell>
                <mxCell id="106" value="Parent Component" style="rounded=0;whiteSpace=wrap;html=1;" vertex="1" parent="1">
                    <mxGeometry x="-760" y="380" width="200" height="60" as="geometry"/>
                </mxCell>
                <mxCell id="107" value="&amp;lt;Context.Provider value=&quot;eng&quot; /&amp;gt;" style="rounded=0;whiteSpace=wrap;html=1;" vertex="1" parent="1">
                    <mxGeometry x="-720" y="420" width="140" height="34" as="geometry"/>
                </mxCell>
                <mxCell id="108" value="Context Object" style="text;html=1;strokeColor=none;fillColor=none;align=center;verticalAlign=middle;whiteSpace=wrap;rounded=0;" vertex="1" parent="1">
                    <mxGeometry x="-750" y="500" width="40" height="20" as="geometry"/>
                </mxCell>
                <mxCell id="117" value="" style="edgeStyle=orthogonalEdgeStyle;rounded=0;orthogonalLoop=1;jettySize=auto;html=1;" edge="1" parent="1" source="109" target="116">
                    <mxGeometry relative="1" as="geometry"/>
                </mxCell>
                <mxCell id="109" value="App component gets rendered,creates a Provider that wraps UserCreate" style="rounded=1;whiteSpace=wrap;html=1;fillColor=#40FF59;" vertex="1" parent="1">
                    <mxGeometry x="-735" y="870" width="340" height="60" as="geometry"/>
                </mxCell>
                <mxCell id="116" value="Each separate use of Language Context.Provider creates a new separate pipe of information!" style="rounded=1;whiteSpace=wrap;html=1;fillColor=#40FF59;" vertex="1" parent="1">
                    <mxGeometry x="-315" y="870" width="340" height="60" as="geometry"/>
                </mxCell>
                <mxCell id="110" value="We create context object wit default value &quot;english&quot;" style="rounded=1;whiteSpace=wrap;html=1;" vertex="1" parent="1">
                    <mxGeometry x="-735" y="800" width="340" height="60" as="geometry"/>
                </mxCell>
                <mxCell id="111" value="Application loads up in the browser" style="rounded=1;whiteSpace=wrap;html=1;" vertex="1" parent="1">
                    <mxGeometry x="-740" y="730" width="340" height="60" as="geometry"/>
                </mxCell>
                <mxCell id="112" value="Provider updates the value of context object to this.state.language" style="rounded=1;whiteSpace=wrap;html=1;" vertex="1" parent="1">
                    <mxGeometry x="-735" y="940" width="340" height="60" as="geometry"/>
                </mxCell>
                <mxCell id="113" value="Button and Field reach into this.context object and see the value of this.state.language" style="rounded=1;whiteSpace=wrap;html=1;" vertex="1" parent="1">
                    <mxGeometry x="-735" y="1010" width="340" height="60" as="geometry"/>
                </mxCell>
                <mxCell id="114" value="Button and field render appropriate text on screen" style="rounded=1;whiteSpace=wrap;html=1;" vertex="1" parent="1">
                    <mxGeometry x="-735" y="1080" width="340" height="60" as="geometry"/>
                </mxCell>
                <mxCell id="115" value="" style="endArrow=classic;html=1;" edge="1" parent="1">
                    <mxGeometry width="50" height="50" relative="1" as="geometry">
                        <mxPoint x="-770" y="730" as="sourcePoint"/>
                        <mxPoint x="-770" y="1130" as="targetPoint"/>
                    </mxGeometry>
                </mxCell>
            </root>
        </mxGraphModel>
    </diagram>
</mxfile>